<mxfile host="app.diagrams.net" modified="2024-03-11T07:48:48.881Z" agent="Mozilla/5.0 (Macintosh; Intel Mac OS X 10_15_7) AppleWebKit/537.36 (KHTML, like Gecko) Chrome/122.0.0.0 Safari/537.36" etag="HzTe5kTQRUquNhP8wV55" version="24.0.4" type="device" pages="2">
  <diagram name="arc" id="F7eQRk_wx4P417i_VyJI">
    <mxGraphModel dx="1196" dy="887" grid="1" gridSize="10" guides="1" tooltips="1" connect="1" arrows="1" fold="1" page="1" pageScale="1" pageWidth="827" pageHeight="1169" math="0" shadow="0">
      <root>
        <mxCell id="0" />
        <mxCell id="1" parent="0" />
        <mxCell id="pqby8JV8RbGpNWZ7zkbz-9" style="edgeStyle=orthogonalEdgeStyle;rounded=0;orthogonalLoop=1;jettySize=auto;html=1;entryX=0;entryY=0.5;entryDx=0;entryDy=0;" parent="1" source="pqby8JV8RbGpNWZ7zkbz-1" target="pqby8JV8RbGpNWZ7zkbz-4" edge="1">
          <mxGeometry relative="1" as="geometry" />
        </mxCell>
        <mxCell id="pqby8JV8RbGpNWZ7zkbz-1" value="User" style="shape=umlActor;verticalLabelPosition=bottom;verticalAlign=top;html=1;outlineConnect=0;" parent="1" vertex="1">
          <mxGeometry x="20" y="300" width="30" height="60" as="geometry" />
        </mxCell>
        <mxCell id="pqby8JV8RbGpNWZ7zkbz-30" style="edgeStyle=orthogonalEdgeStyle;rounded=0;orthogonalLoop=1;jettySize=auto;html=1;entryX=0;entryY=0.5;entryDx=0;entryDy=0;startArrow=classic;startFill=1;" parent="1" source="pqby8JV8RbGpNWZ7zkbz-4" target="pqby8JV8RbGpNWZ7zkbz-26" edge="1">
          <mxGeometry relative="1" as="geometry" />
        </mxCell>
        <mxCell id="pqby8JV8RbGpNWZ7zkbz-4" value="Frontend" style="rounded=0;whiteSpace=wrap;html=1;" parent="1" vertex="1">
          <mxGeometry x="120" y="300" width="120" height="60" as="geometry" />
        </mxCell>
        <mxCell id="pqby8JV8RbGpNWZ7zkbz-6" value="Backend" style="swimlane;whiteSpace=wrap;html=1;" parent="1" vertex="1">
          <mxGeometry x="300" y="110" width="380" height="480" as="geometry" />
        </mxCell>
        <mxCell id="pqby8JV8RbGpNWZ7zkbz-20" style="edgeStyle=orthogonalEdgeStyle;rounded=0;orthogonalLoop=1;jettySize=auto;html=1;entryX=0.5;entryY=0;entryDx=0;entryDy=0;startArrow=classic;startFill=1;" parent="pqby8JV8RbGpNWZ7zkbz-6" source="pqby8JV8RbGpNWZ7zkbz-11" target="pqby8JV8RbGpNWZ7zkbz-12" edge="1">
          <mxGeometry relative="1" as="geometry" />
        </mxCell>
        <mxCell id="pqby8JV8RbGpNWZ7zkbz-27" style="edgeStyle=orthogonalEdgeStyle;rounded=0;orthogonalLoop=1;jettySize=auto;html=1;entryX=0.5;entryY=0;entryDx=0;entryDy=0;startArrow=classic;startFill=1;" parent="pqby8JV8RbGpNWZ7zkbz-6" source="pqby8JV8RbGpNWZ7zkbz-26" target="pqby8JV8RbGpNWZ7zkbz-11" edge="1">
          <mxGeometry relative="1" as="geometry" />
        </mxCell>
        <mxCell id="pqby8JV8RbGpNWZ7zkbz-35" value="" style="group;align=left;fontStyle=1;verticalAlign=top;" parent="pqby8JV8RbGpNWZ7zkbz-6" vertex="1" connectable="0">
          <mxGeometry x="27" y="355" width="313" height="110" as="geometry" />
        </mxCell>
        <mxCell id="pqby8JV8RbGpNWZ7zkbz-12" value="&amp;nbsp; &lt;u&gt;Repository&lt;/u&gt;" style="rounded=0;whiteSpace=wrap;html=1;fillColor=#f8cecc;strokeColor=#b85450;fontStyle=1;verticalAlign=top;align=left;" parent="pqby8JV8RbGpNWZ7zkbz-35" vertex="1">
          <mxGeometry width="313" height="110" as="geometry" />
        </mxCell>
        <mxCell id="pqby8JV8RbGpNWZ7zkbz-14" value="UserRepository" style="rounded=0;whiteSpace=wrap;html=1;" parent="pqby8JV8RbGpNWZ7zkbz-35" vertex="1">
          <mxGeometry x="13" y="35" width="120" height="30" as="geometry" />
        </mxCell>
        <mxCell id="pqby8JV8RbGpNWZ7zkbz-15" value="NoteRepository" style="rounded=0;whiteSpace=wrap;html=1;" parent="pqby8JV8RbGpNWZ7zkbz-35" vertex="1">
          <mxGeometry x="13" y="70" width="120" height="30" as="geometry" />
        </mxCell>
        <mxCell id="pqby8JV8RbGpNWZ7zkbz-16" value="TagRepository" style="rounded=0;whiteSpace=wrap;html=1;" parent="pqby8JV8RbGpNWZ7zkbz-35" vertex="1">
          <mxGeometry x="183" y="40" width="110" height="30" as="geometry" />
        </mxCell>
        <mxCell id="pqby8JV8RbGpNWZ7zkbz-36" value="Â  Service" style="group;align=left;fontStyle=0;fontSize=14;" parent="pqby8JV8RbGpNWZ7zkbz-6" vertex="1" connectable="0">
          <mxGeometry x="27" y="200" width="313" height="110" as="geometry" />
        </mxCell>
        <mxCell id="pqby8JV8RbGpNWZ7zkbz-11" value="&amp;nbsp;Service" style="rounded=0;whiteSpace=wrap;html=1;fillColor=#dae8fc;strokeColor=#6c8ebf;align=left;verticalAlign=top;fontStyle=5" parent="pqby8JV8RbGpNWZ7zkbz-36" vertex="1">
          <mxGeometry width="313" height="110" as="geometry" />
        </mxCell>
        <mxCell id="pqby8JV8RbGpNWZ7zkbz-19" value="AuthenticationService" style="rounded=0;whiteSpace=wrap;html=1;" parent="pqby8JV8RbGpNWZ7zkbz-36" vertex="1">
          <mxGeometry x="13" y="30" width="160" height="30" as="geometry" />
        </mxCell>
        <mxCell id="pqby8JV8RbGpNWZ7zkbz-17" value="UserService" style="rounded=0;whiteSpace=wrap;html=1;" parent="pqby8JV8RbGpNWZ7zkbz-36" vertex="1">
          <mxGeometry x="178" y="50" width="85" height="30" as="geometry" />
        </mxCell>
        <mxCell id="pqby8JV8RbGpNWZ7zkbz-18" value="NoteService" style="rounded=0;whiteSpace=wrap;html=1;" parent="pqby8JV8RbGpNWZ7zkbz-36" vertex="1">
          <mxGeometry x="13" y="70" width="160" height="30" as="geometry" />
        </mxCell>
        <mxCell id="pqby8JV8RbGpNWZ7zkbz-37" value="" style="group" parent="pqby8JV8RbGpNWZ7zkbz-6" vertex="1" connectable="0">
          <mxGeometry x="27" y="50" width="313" height="110" as="geometry" />
        </mxCell>
        <mxCell id="pqby8JV8RbGpNWZ7zkbz-26" value="&amp;nbsp;&lt;b&gt;&lt;u&gt;Controller&lt;/u&gt;&lt;/b&gt;" style="rounded=0;whiteSpace=wrap;html=1;fillColor=#d5e8d4;strokeColor=#82b366;verticalAlign=top;align=left;" parent="pqby8JV8RbGpNWZ7zkbz-37" vertex="1">
          <mxGeometry width="313" height="110.00000000000001" as="geometry" />
        </mxCell>
        <mxCell id="pqby8JV8RbGpNWZ7zkbz-28" value="SecurityController" style="rounded=0;whiteSpace=wrap;html=1;" parent="pqby8JV8RbGpNWZ7zkbz-37" vertex="1">
          <mxGeometry x="13" y="30" width="250" height="33" as="geometry" />
        </mxCell>
        <mxCell id="pqby8JV8RbGpNWZ7zkbz-29" value="NoteController" style="rounded=0;whiteSpace=wrap;html=1;" parent="pqby8JV8RbGpNWZ7zkbz-37" vertex="1">
          <mxGeometry x="13" y="70" width="250" height="33" as="geometry" />
        </mxCell>
        <mxCell id="pqby8JV8RbGpNWZ7zkbz-7" value="DB" style="shape=cylinder3;whiteSpace=wrap;html=1;boundedLbl=1;backgroundOutline=1;size=15;fillColor=#1ba1e2;fontColor=#ffffff;strokeColor=#006EAF;" parent="1" vertex="1">
          <mxGeometry x="730" y="480" width="60" height="80" as="geometry" />
        </mxCell>
        <mxCell id="pqby8JV8RbGpNWZ7zkbz-13" style="edgeStyle=orthogonalEdgeStyle;rounded=0;orthogonalLoop=1;jettySize=auto;html=1;entryX=0;entryY=0.5;entryDx=0;entryDy=0;entryPerimeter=0;startArrow=classic;startFill=1;" parent="1" source="pqby8JV8RbGpNWZ7zkbz-12" target="pqby8JV8RbGpNWZ7zkbz-7" edge="1">
          <mxGeometry relative="1" as="geometry" />
        </mxCell>
      </root>
    </mxGraphModel>
  </diagram>
  <diagram id="9BIAtr6uDzD7mdtH2iC6" name="Page-2">
    <mxGraphModel dx="1196" dy="887" grid="1" gridSize="10" guides="1" tooltips="1" connect="1" arrows="1" fold="1" page="1" pageScale="1" pageWidth="827" pageHeight="1169" math="0" shadow="0">
      <root>
        <mxCell id="0" />
        <mxCell id="1" parent="0" />
        <mxCell id="IZFtFkIdltnom9PmdAoH-20" style="edgeStyle=orthogonalEdgeStyle;rounded=0;orthogonalLoop=1;jettySize=auto;html=1;entryX=0;entryY=0.5;entryDx=0;entryDy=0;" edge="1" parent="1" source="IZFtFkIdltnom9PmdAoH-1" target="IZFtFkIdltnom9PmdAoH-22">
          <mxGeometry relative="1" as="geometry" />
        </mxCell>
        <mxCell id="IZFtFkIdltnom9PmdAoH-23" value="1" style="edgeLabel;html=1;align=center;verticalAlign=middle;resizable=0;points=[];" vertex="1" connectable="0" parent="IZFtFkIdltnom9PmdAoH-20">
          <mxGeometry x="-0.72" relative="1" as="geometry">
            <mxPoint as="offset" />
          </mxGeometry>
        </mxCell>
        <mxCell id="IZFtFkIdltnom9PmdAoH-24" value="*" style="edgeLabel;html=1;align=center;verticalAlign=middle;resizable=0;points=[];" vertex="1" connectable="0" parent="IZFtFkIdltnom9PmdAoH-20">
          <mxGeometry x="0.62" y="1" relative="1" as="geometry">
            <mxPoint as="offset" />
          </mxGeometry>
        </mxCell>
        <mxCell id="IZFtFkIdltnom9PmdAoH-1" value="User" style="swimlane;fontStyle=0;childLayout=stackLayout;horizontal=1;startSize=30;horizontalStack=0;resizeParent=1;resizeParentMax=0;resizeLast=0;collapsible=1;marginBottom=0;whiteSpace=wrap;html=1;" vertex="1" parent="1">
          <mxGeometry x="160" y="480" width="140" height="210" as="geometry" />
        </mxCell>
        <mxCell id="IZFtFkIdltnom9PmdAoH-2" value="id" style="text;strokeColor=none;fillColor=none;align=left;verticalAlign=middle;spacingLeft=4;spacingRight=4;overflow=hidden;points=[[0,0.5],[1,0.5]];portConstraint=eastwest;rotatable=0;whiteSpace=wrap;html=1;" vertex="1" parent="IZFtFkIdltnom9PmdAoH-1">
          <mxGeometry y="30" width="140" height="30" as="geometry" />
        </mxCell>
        <mxCell id="IZFtFkIdltnom9PmdAoH-19" value="firstname" style="text;strokeColor=none;fillColor=none;align=left;verticalAlign=middle;spacingLeft=4;spacingRight=4;overflow=hidden;points=[[0,0.5],[1,0.5]];portConstraint=eastwest;rotatable=0;whiteSpace=wrap;html=1;" vertex="1" parent="IZFtFkIdltnom9PmdAoH-1">
          <mxGeometry y="60" width="140" height="30" as="geometry" />
        </mxCell>
        <mxCell id="IZFtFkIdltnom9PmdAoH-3" value="lastname" style="text;strokeColor=none;fillColor=none;align=left;verticalAlign=middle;spacingLeft=4;spacingRight=4;overflow=hidden;points=[[0,0.5],[1,0.5]];portConstraint=eastwest;rotatable=0;whiteSpace=wrap;html=1;" vertex="1" parent="IZFtFkIdltnom9PmdAoH-1">
          <mxGeometry y="90" width="140" height="30" as="geometry" />
        </mxCell>
        <mxCell id="IZFtFkIdltnom9PmdAoH-4" value="email" style="text;strokeColor=none;fillColor=none;align=left;verticalAlign=middle;spacingLeft=4;spacingRight=4;overflow=hidden;points=[[0,0.5],[1,0.5]];portConstraint=eastwest;rotatable=0;whiteSpace=wrap;html=1;" vertex="1" parent="IZFtFkIdltnom9PmdAoH-1">
          <mxGeometry y="120" width="140" height="30" as="geometry" />
        </mxCell>
        <mxCell id="IZFtFkIdltnom9PmdAoH-17" value="password" style="text;strokeColor=none;fillColor=none;align=left;verticalAlign=middle;spacingLeft=4;spacingRight=4;overflow=hidden;points=[[0,0.5],[1,0.5]];portConstraint=eastwest;rotatable=0;whiteSpace=wrap;html=1;" vertex="1" parent="IZFtFkIdltnom9PmdAoH-1">
          <mxGeometry y="150" width="140" height="30" as="geometry" />
        </mxCell>
        <mxCell id="IZFtFkIdltnom9PmdAoH-18" value="enabled" style="text;strokeColor=none;fillColor=none;align=left;verticalAlign=middle;spacingLeft=4;spacingRight=4;overflow=hidden;points=[[0,0.5],[1,0.5]];portConstraint=eastwest;rotatable=0;whiteSpace=wrap;html=1;" vertex="1" parent="IZFtFkIdltnom9PmdAoH-1">
          <mxGeometry y="180" width="140" height="30" as="geometry" />
        </mxCell>
        <mxCell id="IZFtFkIdltnom9PmdAoH-27" style="edgeStyle=orthogonalEdgeStyle;rounded=0;orthogonalLoop=1;jettySize=auto;html=1;entryX=0;entryY=0.5;entryDx=0;entryDy=0;exitX=1;exitY=0.5;exitDx=0;exitDy=0;" edge="1" parent="1" source="IZFtFkIdltnom9PmdAoH-25" target="IZFtFkIdltnom9PmdAoH-15">
          <mxGeometry relative="1" as="geometry" />
        </mxCell>
        <mxCell id="IZFtFkIdltnom9PmdAoH-41" value="1" style="edgeLabel;html=1;align=center;verticalAlign=middle;resizable=0;points=[];" vertex="1" connectable="0" parent="IZFtFkIdltnom9PmdAoH-27">
          <mxGeometry x="-0.92" relative="1" as="geometry">
            <mxPoint as="offset" />
          </mxGeometry>
        </mxCell>
        <mxCell id="IZFtFkIdltnom9PmdAoH-42" value="1" style="edgeLabel;html=1;align=center;verticalAlign=middle;resizable=0;points=[];" vertex="1" connectable="0" parent="IZFtFkIdltnom9PmdAoH-27">
          <mxGeometry x="0.8914" y="-1" relative="1" as="geometry">
            <mxPoint as="offset" />
          </mxGeometry>
        </mxCell>
        <mxCell id="IZFtFkIdltnom9PmdAoH-34" style="edgeStyle=orthogonalEdgeStyle;rounded=0;orthogonalLoop=1;jettySize=auto;html=1;entryX=0;entryY=0.5;entryDx=0;entryDy=0;" edge="1" parent="1" source="IZFtFkIdltnom9PmdAoH-5" target="IZFtFkIdltnom9PmdAoH-32">
          <mxGeometry relative="1" as="geometry" />
        </mxCell>
        <mxCell id="IZFtFkIdltnom9PmdAoH-36" value="1" style="edgeLabel;html=1;align=center;verticalAlign=middle;resizable=0;points=[];" vertex="1" connectable="0" parent="IZFtFkIdltnom9PmdAoH-34">
          <mxGeometry x="-0.8323" y="3" relative="1" as="geometry">
            <mxPoint as="offset" />
          </mxGeometry>
        </mxCell>
        <mxCell id="IZFtFkIdltnom9PmdAoH-37" value="*" style="edgeLabel;html=1;align=center;verticalAlign=middle;resizable=0;points=[];" vertex="1" connectable="0" parent="IZFtFkIdltnom9PmdAoH-34">
          <mxGeometry x="0.7806" y="-2" relative="1" as="geometry">
            <mxPoint as="offset" />
          </mxGeometry>
        </mxCell>
        <mxCell id="IZFtFkIdltnom9PmdAoH-5" value="Note" style="swimlane;fontStyle=0;childLayout=stackLayout;horizontal=1;startSize=30;horizontalStack=0;resizeParent=1;resizeParentMax=0;resizeLast=0;collapsible=1;marginBottom=0;whiteSpace=wrap;html=1;" vertex="1" parent="1">
          <mxGeometry x="400" y="480" width="140" height="180" as="geometry" />
        </mxCell>
        <mxCell id="IZFtFkIdltnom9PmdAoH-6" value="id" style="text;strokeColor=none;fillColor=none;align=left;verticalAlign=middle;spacingLeft=4;spacingRight=4;overflow=hidden;points=[[0,0.5],[1,0.5]];portConstraint=eastwest;rotatable=0;whiteSpace=wrap;html=1;" vertex="1" parent="IZFtFkIdltnom9PmdAoH-5">
          <mxGeometry y="30" width="140" height="30" as="geometry" />
        </mxCell>
        <mxCell id="IZFtFkIdltnom9PmdAoH-7" value="title" style="text;strokeColor=none;fillColor=none;align=left;verticalAlign=middle;spacingLeft=4;spacingRight=4;overflow=hidden;points=[[0,0.5],[1,0.5]];portConstraint=eastwest;rotatable=0;whiteSpace=wrap;html=1;" vertex="1" parent="IZFtFkIdltnom9PmdAoH-5">
          <mxGeometry y="60" width="140" height="30" as="geometry" />
        </mxCell>
        <mxCell id="IZFtFkIdltnom9PmdAoH-8" value="text" style="text;strokeColor=none;fillColor=none;align=left;verticalAlign=middle;spacingLeft=4;spacingRight=4;overflow=hidden;points=[[0,0.5],[1,0.5]];portConstraint=eastwest;rotatable=0;whiteSpace=wrap;html=1;" vertex="1" parent="IZFtFkIdltnom9PmdAoH-5">
          <mxGeometry y="90" width="140" height="30" as="geometry" />
        </mxCell>
        <mxCell id="IZFtFkIdltnom9PmdAoH-22" value="user_id&amp;nbsp; &amp;nbsp; &amp;nbsp; &amp;nbsp; &amp;nbsp; &amp;nbsp; &amp;nbsp; &amp;nbsp; &amp;nbsp; &amp;nbsp; &amp;nbsp; FK" style="text;strokeColor=none;fillColor=none;align=left;verticalAlign=middle;spacingLeft=4;spacingRight=4;overflow=hidden;points=[[0,0.5],[1,0.5]];portConstraint=eastwest;rotatable=0;whiteSpace=wrap;html=1;" vertex="1" parent="IZFtFkIdltnom9PmdAoH-5">
          <mxGeometry y="120" width="140" height="30" as="geometry" />
        </mxCell>
        <mxCell id="IZFtFkIdltnom9PmdAoH-25" value="upload_id&amp;nbsp; &amp;nbsp; &amp;nbsp; &amp;nbsp; &amp;nbsp; &amp;nbsp; &amp;nbsp; &amp;nbsp; &amp;nbsp; FK" style="text;strokeColor=none;fillColor=none;align=left;verticalAlign=middle;spacingLeft=4;spacingRight=4;overflow=hidden;points=[[0,0.5],[1,0.5]];portConstraint=eastwest;rotatable=0;whiteSpace=wrap;html=1;" vertex="1" parent="IZFtFkIdltnom9PmdAoH-5">
          <mxGeometry y="150" width="140" height="30" as="geometry" />
        </mxCell>
        <mxCell id="IZFtFkIdltnom9PmdAoH-38" style="edgeStyle=orthogonalEdgeStyle;rounded=0;orthogonalLoop=1;jettySize=auto;html=1;entryX=1;entryY=0.5;entryDx=0;entryDy=0;" edge="1" parent="1" source="IZFtFkIdltnom9PmdAoH-9" target="IZFtFkIdltnom9PmdAoH-33">
          <mxGeometry relative="1" as="geometry" />
        </mxCell>
        <mxCell id="IZFtFkIdltnom9PmdAoH-39" value="1" style="edgeLabel;html=1;align=center;verticalAlign=middle;resizable=0;points=[];" vertex="1" connectable="0" parent="IZFtFkIdltnom9PmdAoH-38">
          <mxGeometry x="-0.8162" y="1" relative="1" as="geometry">
            <mxPoint as="offset" />
          </mxGeometry>
        </mxCell>
        <mxCell id="IZFtFkIdltnom9PmdAoH-40" value="*" style="edgeLabel;html=1;align=center;verticalAlign=middle;resizable=0;points=[];" vertex="1" connectable="0" parent="IZFtFkIdltnom9PmdAoH-38">
          <mxGeometry x="0.773" y="1" relative="1" as="geometry">
            <mxPoint as="offset" />
          </mxGeometry>
        </mxCell>
        <mxCell id="IZFtFkIdltnom9PmdAoH-9" value="Tag" style="swimlane;fontStyle=0;childLayout=stackLayout;horizontal=1;startSize=30;horizontalStack=0;resizeParent=1;resizeParentMax=0;resizeLast=0;collapsible=1;marginBottom=0;whiteSpace=wrap;html=1;" vertex="1" parent="1">
          <mxGeometry x="640" y="570" width="140" height="90" as="geometry" />
        </mxCell>
        <mxCell id="IZFtFkIdltnom9PmdAoH-10" value="id" style="text;strokeColor=none;fillColor=none;align=left;verticalAlign=middle;spacingLeft=4;spacingRight=4;overflow=hidden;points=[[0,0.5],[1,0.5]];portConstraint=eastwest;rotatable=0;whiteSpace=wrap;html=1;" vertex="1" parent="IZFtFkIdltnom9PmdAoH-9">
          <mxGeometry y="30" width="140" height="30" as="geometry" />
        </mxCell>
        <mxCell id="IZFtFkIdltnom9PmdAoH-11" value="label" style="text;strokeColor=none;fillColor=none;align=left;verticalAlign=middle;spacingLeft=4;spacingRight=4;overflow=hidden;points=[[0,0.5],[1,0.5]];portConstraint=eastwest;rotatable=0;whiteSpace=wrap;html=1;" vertex="1" parent="IZFtFkIdltnom9PmdAoH-9">
          <mxGeometry y="60" width="140" height="30" as="geometry" />
        </mxCell>
        <mxCell id="IZFtFkIdltnom9PmdAoH-13" value="Upload" style="swimlane;fontStyle=0;childLayout=stackLayout;horizontal=1;startSize=30;horizontalStack=0;resizeParent=1;resizeParentMax=0;resizeLast=0;collapsible=1;marginBottom=0;whiteSpace=wrap;html=1;" vertex="1" parent="1">
          <mxGeometry x="640" y="320" width="140" height="120" as="geometry" />
        </mxCell>
        <mxCell id="IZFtFkIdltnom9PmdAoH-14" value="id" style="text;strokeColor=none;fillColor=none;align=left;verticalAlign=middle;spacingLeft=4;spacingRight=4;overflow=hidden;points=[[0,0.5],[1,0.5]];portConstraint=eastwest;rotatable=0;whiteSpace=wrap;html=1;" vertex="1" parent="IZFtFkIdltnom9PmdAoH-13">
          <mxGeometry y="30" width="140" height="30" as="geometry" />
        </mxCell>
        <mxCell id="IZFtFkIdltnom9PmdAoH-15" value="filename" style="text;strokeColor=none;fillColor=none;align=left;verticalAlign=middle;spacingLeft=4;spacingRight=4;overflow=hidden;points=[[0,0.5],[1,0.5]];portConstraint=eastwest;rotatable=0;whiteSpace=wrap;html=1;" vertex="1" parent="IZFtFkIdltnom9PmdAoH-13">
          <mxGeometry y="60" width="140" height="30" as="geometry" />
        </mxCell>
        <mxCell id="IZFtFkIdltnom9PmdAoH-16" value="imageUrl" style="text;strokeColor=none;fillColor=none;align=left;verticalAlign=middle;spacingLeft=4;spacingRight=4;overflow=hidden;points=[[0,0.5],[1,0.5]];portConstraint=eastwest;rotatable=0;whiteSpace=wrap;html=1;" vertex="1" parent="IZFtFkIdltnom9PmdAoH-13">
          <mxGeometry y="90" width="140" height="30" as="geometry" />
        </mxCell>
        <mxCell id="IZFtFkIdltnom9PmdAoH-28" value="NoticeTags" style="swimlane;fontStyle=0;childLayout=stackLayout;horizontal=1;startSize=30;horizontalStack=0;resizeParent=1;resizeParentMax=0;resizeLast=0;collapsible=1;marginBottom=0;whiteSpace=wrap;html=1;" vertex="1" parent="1">
          <mxGeometry x="520" y="720" width="140" height="90" as="geometry" />
        </mxCell>
        <mxCell id="IZFtFkIdltnom9PmdAoH-32" value="notice_id&amp;nbsp; &amp;nbsp; &amp;nbsp; &amp;nbsp; &amp;nbsp; &amp;nbsp; &amp;nbsp; &amp;nbsp; &amp;nbsp; &amp;nbsp;FK" style="text;strokeColor=none;fillColor=none;align=left;verticalAlign=middle;spacingLeft=4;spacingRight=4;overflow=hidden;points=[[0,0.5],[1,0.5]];portConstraint=eastwest;rotatable=0;whiteSpace=wrap;html=1;" vertex="1" parent="IZFtFkIdltnom9PmdAoH-28">
          <mxGeometry y="30" width="140" height="30" as="geometry" />
        </mxCell>
        <mxCell id="IZFtFkIdltnom9PmdAoH-33" value="tag_id&amp;nbsp; &amp;nbsp; &amp;nbsp; &amp;nbsp; &amp;nbsp; &amp;nbsp; &amp;nbsp; &amp;nbsp; &amp;nbsp; &amp;nbsp; &amp;nbsp; &amp;nbsp; FK" style="text;strokeColor=none;fillColor=none;align=left;verticalAlign=middle;spacingLeft=4;spacingRight=4;overflow=hidden;points=[[0,0.5],[1,0.5]];portConstraint=eastwest;rotatable=0;whiteSpace=wrap;html=1;" vertex="1" parent="IZFtFkIdltnom9PmdAoH-28">
          <mxGeometry y="60" width="140" height="30" as="geometry" />
        </mxCell>
      </root>
    </mxGraphModel>
  </diagram>
</mxfile>
